# xmcd
#
# Track frame offsets:
#	150
#	3317
#	22638
#	37183
#	53150
#	71425
#	84876
#	100724
#	114964
#	130091
#	143651
#	159777
#	177075
#	183408
#	198555
#	221573
#	243784
#	255969
#	275409
#
# Disc length: 3932 seconds
#
# Revision: 0
# Processed by: cddbd v1.5.1PL0 Copyright (c) Steve Scherf et al.
# Submitted via: dBpowerAMP V4.0
#
DISCID=e70f5a13
DTITLE=GATINHA MANHOSA - show dvd
DYEAR=2004
DGENRE=FORRÓ
TTITLE0=abertura
TTITLE1=vivendo de solidão
TTITLE2=eu te amo
TTITLE3=amor ou amizade
TTITLE4=choro por voce
TTITLE5=leilão
TTITLE6=sonho real
TTITLE7=sei que vai voltar
TTITLE8=destino
TTITLE9=não basta
TTITLE10=suzanna
TTITLE11=te amar
TTITLE12=abertura 2
TTITLE13=seu melhor amigo
TTITLE14=de volta pro futuro
TTITLE15=o inverno acabou
TTITLE16=pra sempre em mim
TTITLE17=voce é meu mundo
TTITLE18=amor meu amor
EXTD=
EXTT0=
EXTT1=
EXTT2=
EXTT3=
EXTT4=
EXTT5=
EXTT6=
EXTT7=
EXTT8=
EXTT9=
EXTT10=
EXTT11=
EXTT12=
EXTT13=
EXTT14=
EXTT15=
EXTT16=
EXTT17=
EXTT18=
PLAYORDER=
